<?xml version="1.0" encoding="UTF-8" standalone="no"?>
<svg
   width="1240"
   height="771.67"
   version="1.1"
   id="svg6797"
   sodipodi:docname="concepts.svg"
   inkscape:version="1.2 (dc2aeda, 2022-05-15)"
   xmlns:inkscape="http://www.inkscape.org/namespaces/inkscape"
   xmlns:sodipodi="http://sodipodi.sourceforge.net/DTD/sodipodi-0.dtd"
   xmlns:xlink="http://www.w3.org/1999/xlink"
   xmlns="http://www.w3.org/2000/svg"
   xmlns:svg="http://www.w3.org/2000/svg"
   xmlns:lucid="lucid">
  <defs
     id="defs6801" />
  <sodipodi:namedview
     id="namedview6799"
     pagecolor="#ffffff"
     bordercolor="#000000"
     borderopacity="0.25"
     inkscape:showpageshadow="2"
     inkscape:pageopacity="0.0"
     inkscape:pagecheckerboard="0"
     inkscape:deskcolor="#d1d1d1"
     showgrid="false"
     inkscape:zoom="0.30583022"
     inkscape:cx="603.2759"
     inkscape:cy="385.83499"
     inkscape:window-width="1309"
     inkscape:window-height="456"
     inkscape:window-x="0"
     inkscape:window-y="25"
     inkscape:window-maximized="0"
     inkscape:current-layer="g6795" />
  <g
     transform="translate(0 -280)"
     lucid:page-tab-id="0_0"
     id="g6795">
    <path
       d="M980 884.33c0-3.3 2.7-6 6-6h228c3.3 0 6 2.7 6 6v51.34c0 3.3-2.7 6-6 6H986c-3.3 0-6-2.7-6-6z"
       stroke="#a3d977"
       stroke-width="3"
       fill="#fff"
       id="path5782" />
    <use
       xlink:href="#a"
       transform="matrix(1,0,0,1,985,883.3333333333334) translate(58.88888888888889 17.77777777777778)"
       id="use5784" />
    <use
       xlink:href="#b"
       transform="matrix(1,0,0,1,985,883.3333333333334) translate(152.59259259259258 17.77777777777778)"
       id="use5786" />
    <use
       xlink:href="#c"
       transform="matrix(1,0,0,1,985,883.3333333333334) translate(21.388888888888886 44.44444444444444)"
       id="use5788" />
    <use
       xlink:href="#d"
       transform="matrix(1,0,0,1,985,883.3333333333334) translate(128.54938271604937 44.44444444444444)"
       id="use5790" />
    <path
       d="M980 974.33c0-3.3 2.7-6 6-6h228c3.3 0 6 2.7 6 6v51.34c0 3.3-2.7 6-6 6H986c-3.3 0-6-2.7-6-6z"
       stroke="#3aa6dd"
       stroke-width="3"
       fill="#fff"
       id="path5792" />
    <use
       xlink:href="#a"
       transform="matrix(1,0,0,1,985,973.3333333333334) translate(58.88888888888889 17.77777777777778)"
       id="use5794" />
    <use
       xlink:href="#b"
       transform="matrix(1,0,0,1,985,973.3333333333334) translate(152.59259259259258 17.77777777777778)"
       id="use5796" />
    <use
       xlink:href="#e"
       transform="matrix(1,0,0,1,985,973.3333333333334) translate(25.09259259259261 44.44444444444444)"
       id="use5798" />
    <use
       xlink:href="#d"
       transform="matrix(1,0,0,1,985,973.3333333333334) translate(124.84567901234568 44.44444444444444)"
       id="use5800" />
    <path
       d="M20 306c0-3.3 2.7-6 6-6h228c3.3 0 6 2.7 6 6v48c0 3.3-2.7 6-6 6H26c-3.3 0-6-2.7-6-6z"
       stroke="#000"
       stroke-opacity="0"
       stroke-width="3"
       fill="#fff"
       fill-opacity="0"
       id="path5802" />
    <use
       xlink:href="#f"
       transform="matrix(1,0,0,1,25,305) translate(21.882716049382708 30.27777777777778)"
       id="use5804" />
    <use
       xlink:href="#g"
       transform="matrix(1,0,0,1,25,305) translate(61.388888888888886 30.27777777777778)"
       id="use5806" />
    <use
       xlink:href="#h"
       transform="matrix(1,0,0,1,25,305) translate(92.25308641975309 30.27777777777778)"
       id="use5808" />
    <use
       xlink:href="#i"
       transform="matrix(1,0,0,1,25,305) translate(141.57407407407408 30.27777777777778)"
       id="use5810" />
    <path
       d="M20 386c0-3.3 2.7-6 6-6h228c3.3 0 6 2.7 6 6v48c0 3.3-2.7 6-6 6H26c-3.3 0-6-2.7-6-6z"
       stroke="#000"
       stroke-opacity="0"
       stroke-width="3"
       fill="#fff"
       fill-opacity="0"
       id="path5812" />
    <use
       xlink:href="#j"
       transform="matrix(1,0,0,1,25,385) translate(36.04938271604938 30.27777777777778)"
       id="use5814" />
    <use
       xlink:href="#k"
       transform="matrix(1,0,0,1,25,385) translate(94.07407407407408 30.27777777777778)"
       id="use5816" />
    <use
       xlink:href="#l"
       transform="matrix(1,0,0,1,25,385) translate(159.44444444444446 30.27777777777778)"
       id="use5818" />
    <path
       d="M20 466c0-3.3 2.7-6 6-6h228c3.3 0 6 2.7 6 6v48c0 3.3-2.7 6-6 6H26c-3.3 0-6-2.7-6-6z"
       stroke="#000"
       stroke-opacity="0"
       stroke-width="3"
       fill="#fff"
       fill-opacity="0"
       id="path5820" />
    <use
       xlink:href="#m"
       transform="matrix(1,0,0,1,25,465) translate(7.932098765432087 30.27777777777778)"
       id="use5822" />
    <use
       xlink:href="#n"
       transform="matrix(1,0,0,1,25,465) translate(65.33950617283949 30.27777777777778)"
       id="use5824" />
    <use
       xlink:href="#o"
       transform="matrix(1,0,0,1,25,465) translate(173.91975308641975 30.27777777777778)"
       id="use5826" />
    <path
       d="M20 546c0-3.3 2.7-6 6-6h228c3.3 0 6 2.7 6 6v48c0 3.3-2.7 6-6 6H26c-3.3 0-6-2.7-6-6z"
       stroke="#000"
       stroke-opacity="0"
       stroke-width="3"
       fill="#fff"
       fill-opacity="0"
       id="path5828" />
    <use
       xlink:href="#p"
       transform="matrix(1,0,0,1,25,545) translate(42.839506172839506 30.27777777777778)"
       id="use5830" />
    <use
       xlink:href="#h"
       transform="matrix(1,0,0,1,25,545) translate(89.69135802469137 30.27777777777778)"
       id="use5832" />
    <use
       xlink:href="#o"
       transform="matrix(1,0,0,1,25,545) translate(139.01234567901236 30.27777777777778)"
       id="use5834" />
    <path
       d="M20 626c0-3.3 2.7-6 6-6h228c3.3 0 6 2.7 6 6v48c0 3.3-2.7 6-6 6H26c-3.3 0-6-2.7-6-6z"
       stroke="#000"
       stroke-opacity="0"
       stroke-width="3"
       fill="#fff"
       fill-opacity="0"
       id="path5836" />
    <use
       xlink:href="#q"
       transform="matrix(1,0,0,1,25,625) translate(12.623456790123456 30.27777777777778)"
       id="use5838" />
    <use
       xlink:href="#h"
       transform="matrix(1,0,0,1,25,625) translate(119.9074074074074 30.27777777777778)"
       id="use5840" />
    <use
       xlink:href="#o"
       transform="matrix(1,0,0,1,25,625) translate(169.2283950617284 30.27777777777778)"
       id="use5842" />
    <path
       d="M20 806c0-3.3 2.7-6 6-6h228c3.3 0 6 2.7 6 6v48c0 3.3-2.7 6-6 6H26c-3.3 0-6-2.7-6-6z"
       stroke="#000"
       stroke-opacity="0"
       stroke-width="3"
       fill="#fff"
       fill-opacity="0"
       id="path5844" />
    <use
       xlink:href="#r"
       transform="matrix(1,0,0,1,25,805) translate(47.839506172839506 30.27777777777778)"
       id="use5846" />
    <use
       xlink:href="#s"
       transform="matrix(1,0,0,1,25,805) translate(108.27160493827161 30.27777777777778)"
       id="use5848" />
    <use
       xlink:href="#t"
       transform="matrix(1,0,0,1,25,805) translate(125.49382716049384 30.27777777777778)"
       id="use5850" />
    <path
       d="M800 306c0-3.3 2.7-6 6-6h168c3.3 0 6 2.7 6 6v28c0 3.3-2.7 6-6 6H806c-3.3 0-6-2.7-6-6z"
       stroke="#0c7cba"
       stroke-width="3"
       fill="#fff"
       id="path5852" />
    <use
       xlink:href="#u"
       transform="matrix(1,0,0,1,805,305) translate(25.185185185185176 19.65277777777778)"
       id="use5854" />
    <path
       d="M320 306c0-3.3 2.7-6 6-6h168c3.3 0 6 2.7 6 6v28c0 3.3-2.7 6-6 6H326c-3.3 0-6-2.7-6-6z"
       stroke="#0c7cba"
       stroke-width="3"
       fill="#fff"
       id="path5856" />
    <use
       xlink:href="#v"
       transform="matrix(1,0,0,1,325,305) translate(17.191358024691354 19.65277777777778)"
       id="use5858" />
    <path
       d="M560 306c0-3.3 2.7-6 6-6h168c3.3 0 6 2.7 6 6v28c0 3.3-2.7 6-6 6H566c-3.3 0-6-2.7-6-6z"
       stroke="#0c7cba"
       stroke-width="3"
       fill="#fff"
       id="path5860" />
    <use
       xlink:href="#w"
       transform="matrix(1,0,0,1,565,305) translate(33.179012345679006 19.65277777777778)"
       id="use5862" />
    <path
       d="M800 386c0-3.3 2.7-6 6-6h168c3.3 0 6 2.7 6 6v28c0 3.3-2.7 6-6 6H806c-3.3 0-6-2.7-6-6z"
       stroke="#a3d977"
       stroke-width="3"
       fill="#fff"
       id="path5864" />
    <use
       xlink:href="#x"
       transform="matrix(1,0,0,1,805,385) translate(5.493827160493822 19.65277777777778)"
       id="use5866" />
    <use
       xlink:href="#y"
       transform="matrix(1,0,0,1,805,385) translate(64.69135802469135 19.65277777777778)"
       id="use5868" />
    <path
       d="M320 386c0-3.3 2.7-6 6-6h168c3.3 0 6 2.7 6 6v28c0 3.3-2.7 6-6 6H326c-3.3 0-6-2.7-6-6z"
       stroke="#a3d977"
       stroke-width="3"
       fill="#fff"
       id="path5870" />
    <use
       xlink:href="#z"
       transform="matrix(1,0,0,1,325,385) translate(24.567901234567906 19.65277777777778)"
       id="use5872" />
    <use
       xlink:href="#A"
       transform="matrix(1,0,0,1,325,385) translate(80.06172839506172 19.65277777777778)"
       id="use5874" />
    <path
       d="M560 386c0-3.3 2.7-6 6-6h168c3.3 0 6 2.7 6 6v28c0 3.3-2.7 6-6 6H566c-3.3 0-6-2.7-6-6z"
       stroke="#a3d977"
       stroke-width="3"
       fill="#fff"
       id="path5876" />
    <use
       xlink:href="#B"
       transform="matrix(1,0,0,1,565,385) translate(51.7283950617284 19.65277777777778)"
       id="use5878" />
    <path
       d="M320 466c0-3.3 2.7-6 6-6h168c3.3 0 6 2.7 6 6v28c0 3.3-2.7 6-6 6H326c-3.3 0-6-2.7-6-6z"
       stroke="#a3d977"
       stroke-width="3"
       fill="#fff"
       id="path5880" />
    <use
       xlink:href="#C"
       transform="matrix(1,0,0,1,325,465) translate(14.074074074074076 19.65277777777778)"
       id="use5882" />
    <use
       xlink:href="#D"
       transform="matrix(1,0,0,1,325,465) translate(67.09876543209876 19.65277777777778)"
       id="use5884" />
    <path
       d="M560 466c0-3.3 2.7-6 6-6h168c3.3 0 6 2.7 6 6v28c0 3.3-2.7 6-6 6H566c-3.3 0-6-2.7-6-6z"
       stroke="#a3d977"
       stroke-width="3"
       fill="#fff"
       id="path5886" />
    <use
       xlink:href="#E"
       transform="matrix(1,0,0,1,565,465) translate(27.22222222222223 19.65277777777778)"
       id="use5888" />
    <use
       xlink:href="#F"
       transform="matrix(1,0,0,1,565,465) translate(77.77777777777777 19.65277777777778)"
       id="use5890" />
    <path
       d="M320 546c0-3.3 2.7-6 6-6h168c3.3 0 6 2.7 6 6v28c0 3.3-2.7 6-6 6H326c-3.3 0-6-2.7-6-6z"
       stroke="#a3d977"
       stroke-width="3"
       fill="#fff"
       id="path5892" />
    <use
       xlink:href="#G"
       transform="matrix(1,0,0,1,325,545) translate(38.76543209876543 19.65277777777778)"
       id="use5894" />
    <use
       xlink:href="#H"
       transform="matrix(1,0,0,1,325,545) translate(84.32098765432099 19.65277777777778)"
       id="use5896" />
    <path
       d="M560 546c0-3.3 2.7-6 6-6h168c3.3 0 6 2.7 6 6v28c0 3.3-2.7 6-6 6H566c-3.3 0-6-2.7-6-6z"
       stroke="#a3d977"
       stroke-width="3"
       fill="#fff"
       id="path5898" />
    <use
       xlink:href="#I"
       transform="matrix(1,0,0,1,565,545) translate(54.78395061728395 19.65277777777778)"
       id="use5900" />
    <path
       d="M1040 546c0-3.3 2.7-6 6-6h168c3.3 0 6 2.7 6 6v28c0 3.3-2.7 6-6 6h-168c-3.3 0-6-2.7-6-6z"
       stroke="#0c7cba"
       stroke-width="3"
       fill="#fff"
       id="path5902" />
    <use
       xlink:href="#J"
       transform="matrix(1,0,0,1,1045,545) translate(28.30246913580246 19.65277777777778)"
       id="use5904" />
    <path
       d="M800 626c0-3.3 2.7-6 6-6h168c3.3 0 6 2.7 6 6v28c0 3.3-2.7 6-6 6H806c-3.3 0-6-2.7-6-6z"
       stroke="#0c7cba"
       stroke-width="3"
       fill="#fff"
       id="path5906" />
    <use
       xlink:href="#K"
       transform="matrix(1,0,0,1,805,625) translate(19.59876543209876 19.65277777777778)"
       id="use5908" />
    <path
       d="M1040 626c0-3.3 2.7-6 6-6h168c3.3 0 6 2.7 6 6v28c0 3.3-2.7 6-6 6h-168c-3.3 0-6-2.7-6-6z"
       stroke="#0c7cba"
       stroke-width="3"
       fill="#fff"
       id="path5910" />
    <use
       xlink:href="#L"
       transform="matrix(1,0,0,1,1045,625) translate(51.08024691358025 19.65277777777778)"
       id="use5912" />
    <path
       d="M320 806c0-3.3 2.7-6 6-6h168c3.3 0 6 2.7 6 6v28c0 3.3-2.7 6-6 6H326c-3.3 0-6-2.7-6-6z"
       stroke="#5e5e5e"
       stroke-width="3"
       fill="#fff"
       id="path5914" />
    <use
       xlink:href="#M"
       transform="matrix(1,0,0,1,325,805) translate(20.956790123456784 19.65277777777778)"
       id="use5916" />
    <use
       xlink:href="#N"
       transform="matrix(1,0,0,1,325,805) translate(66.51234567901234 19.65277777777778)"
       id="use5918" />
    <path
       d="M560 806c0-3.3 2.7-6 6-6h168c3.3 0 6 2.7 6 6v28c0 3.3-2.7 6-6 6H566c-3.3 0-6-2.7-6-6z"
       stroke="#5e5e5e"
       stroke-width="3"
       fill="#fff"
       id="path5920" />
    <use
       xlink:href="#O"
       transform="matrix(1,0,0,1,565,805) translate(21.45061728395062 19.65277777777778)"
       id="use5922" />
    <use
       xlink:href="#P"
       transform="matrix(1,0,0,1,565,805) translate(81.94444444444444 19.65277777777778)"
       id="use5924" />
    <path
       d="M980 826c0-3.3 2.7-6 6-6h228c3.3 0 6 2.7 6 6v48c0 3.3-2.7 6-6 6H986c-3.3 0-6-2.7-6-6z"
       stroke="#000"
       stroke-opacity="0"
       stroke-width="3"
       fill="#fff"
       fill-opacity="0"
       id="path5926" />
    <use
       xlink:href="#Q"
       transform="matrix(1,0,0,1,985,825) translate(95.8641975308642 30.27777777777778)"
       id="use5928" />
    <path
       d="M502.5 320H540"
       stroke="#5e5e5e"
       stroke-width="2"
       fill="none"
       id="path5930" />
    <path
       d="M502.53 321h-1.03v-2h1.03"
       fill="#5e5e5e"
       id="path5932" />
    <path
       d="M555.26 320L541 324.64v-9.28z"
       stroke="#5e5e5e"
       stroke-width="2"
       fill="#5e5e5e"
       id="path5934" />
    <path
       d="M797.5 320H760"
       stroke="#5e5e5e"
       stroke-width="2"
       fill="none"
       id="path5936" />
    <path
       d="M798.5 321h-1.03v-2h1.03"
       fill="#5e5e5e"
       id="path5938" />
    <path
       d="M744.74 320l14.26-4.64v9.28z"
       stroke="#5e5e5e"
       stroke-width="2"
       fill="#5e5e5e"
       id="path5940" />
    <path
       d="M317.5 320h-33c-3.3 0-6 2.7-6 6v388c0 3.3 2.7 6 6 6H300"
       stroke="#5e5e5e"
       stroke-width="2"
       fill="none"
       id="path5942" />
    <path
       d="M318.5 321h-1.03v-2h1.03"
       fill="#5e5e5e"
       id="path5944" />
    <path
       d="M315.26 720L301 724.64v-9.28z"
       stroke="#5e5e5e"
       stroke-width="2"
       fill="#5e5e5e"
       id="path5946" />
    <path
       d="M890 754.17V764c0 3.3-2.7 6-6 6H656c-3.3 0-6 2.7-6 6v4"
       stroke="#5e5e5e"
       stroke-width="2"
       fill="none"
       id="path5948" />
    <path
       d="M891 754.2h-2v-1.03h2"
       fill="#5e5e5e"
       id="path5950" />
    <path
       d="M650 795.26L645.36 781h9.28z"
       stroke="#5e5e5e"
       stroke-width="2"
       fill="#5e5e5e"
       id="path5952" />
    <path
       d="M502.5 820H540"
       stroke="#5e5e5e"
       stroke-width="2"
       fill="none"
       id="path5954" />
    <path
       d="M502.53 821h-1.03v-2h1.03"
       fill="#5e5e5e"
       id="path5956" />
    <path
       d="M555.26 820L541 824.64v-9.28z"
       stroke="#5e5e5e"
       stroke-width="2"
       fill="#5e5e5e"
       id="path5958" />
    <path
       d="M800 694.33c0-3.3 2.7-6 6-6h168c3.3 0 6 2.7 6 6v51.34c0 3.3-2.7 6-6 6H806c-3.3 0-6-2.7-6-6z"
       stroke="#0c7cba"
       stroke-width="3"
       fill="#fff"
       id="path5960" />
    <use
       xlink:href="#R"
       transform="matrix(1,0,0,1,805,693.3333333333333) translate(19.07407407407409 31.27777777777778)"
       id="use5962" />
    <path
       d="M1037.5 640H1000"
       stroke="#5e5e5e"
       stroke-width="2"
       fill="none"
       id="path5964" />
    <path
       d="M1038.5 641h-1.03v-2h1.03"
       fill="#5e5e5e"
       id="path5966" />
    <path
       d="M984.74 640l14.26-4.64v9.28z"
       stroke="#5e5e5e"
       stroke-width="2"
       fill="#5e5e5e"
       id="path5968" />
    <path
       d="M982.5 560h37.5"
       stroke="#5e5e5e"
       stroke-width="2"
       fill="none"
       id="path5970" />
    <path
       d="M982.53 561h-1.03v-2h1.03"
       fill="#5e5e5e"
       id="path5972" />
    <path
       d="M1035.26 560l-14.26 4.64v-9.28z"
       stroke="#5e5e5e"
       stroke-width="2"
       fill="#5e5e5e"
       id="path5974" />
    <path
       d="M742.5 560H780"
       stroke="#5e5e5e"
       stroke-width="2"
       fill="none"
       id="path5976" />
    <path
       d="M742.53 561h-1.03v-2h1.03"
       fill="#5e5e5e"
       id="path5978" />
    <path
       d="M795.26 560L781 564.64v-9.28z"
       stroke="#5e5e5e"
       stroke-width="2"
       fill="#5e5e5e"
       id="path5980" />
    <path
       d="M557.5 560H520"
       stroke="#5e5e5e"
       stroke-width="2"
       fill="none"
       id="path5982" />
    <path
       d="M558.5 561h-1.03v-2h1.03"
       fill="#5e5e5e"
       id="path5984" />
    <path
       d="M504.74 560l14.26-4.64v9.28z"
       stroke="#5e5e5e"
       stroke-width="2"
       fill="#5e5e5e"
       id="path5986" />
    <path
       d="M502.5 400H540"
       stroke="#5e5e5e"
       stroke-width="2"
       fill="none"
       id="path5988" />
    <path
       d="M502.53 401h-1.03v-2h1.03"
       fill="#5e5e5e"
       id="path5990" />
    <path
       d="M555.26 400L541 404.64v-9.28z"
       stroke="#5e5e5e"
       stroke-width="2"
       fill="#5e5e5e"
       id="path5992" />
    <path
       d="M742.5 400H780"
       stroke="#5e5e5e"
       stroke-width="2"
       fill="none"
       id="path5994" />
    <path
       d="M742.53 401h-1.03v-2h1.03"
       fill="#5e5e5e"
       id="path5996" />
    <path
       d="M795.26 400L781 404.64v-9.28z"
       stroke="#5e5e5e"
       stroke-width="2"
       fill="#5e5e5e"
       id="path5998" />
    <path
       d="M410 502.5V520"
       stroke="#5e5e5e"
       stroke-width="2"
       fill="none"
       id="path6000" />
    <path
       d="M411 502.53h-2v-1.03h2"
       fill="#5e5e5e"
       id="path6002" />
    <path
       d="M410 535.26L405.36 521h9.28z"
       stroke="#5e5e5e"
       stroke-width="2"
       fill="#5e5e5e"
       id="path6004" />
    <path
       d="M502.5 480H540"
       stroke="#5e5e5e"
       stroke-width="2"
       fill="none"
       id="path6006" />
    <path
       d="M502.53 481h-1.03v-2h1.03"
       fill="#5e5e5e"
       id="path6008" />
    <path
       d="M555.26 480L541 484.64v-9.28z"
       stroke="#5e5e5e"
       stroke-width="2"
       fill="#5e5e5e"
       id="path6010" />
    <path
       d="M410 422.5V434c0 3.3 2.7 6 6 6h468c3.3 0 6 2.7 6 6v154"
       stroke="#5e5e5e"
       stroke-width="2"
       fill="none"
       id="path6012" />
    <path
       d="M411 422.53h-2v-1.03h2"
       fill="#5e5e5e"
       id="path6014" />
    <path
       d="M890 615.26L885.36 601h9.28z"
       stroke="#5e5e5e"
       stroke-width="2"
       fill="#5e5e5e"
       id="path6016" />
    <path
       d="M800 546c0-3.3 2.7-6 6-6h168c3.3 0 6 2.7 6 6v28c0 3.3-2.7 6-6 6H806c-3.3 0-6-2.7-6-6z"
       stroke="#0c7cba"
       stroke-width="3"
       fill="#fff"
       id="path6018" />
    <g
       id="g6024">
      <use
         xlink:href="#p"
         transform="matrix(1,0,0,1,805,545) translate(32.592592592592595 19.65277777777778)"
         id="use6020" />
      <use
         xlink:href="#S"
         transform="matrix(1,0,0,1,805,545) translate(79.44444444444446 19.65277777777778)"
         id="use6022" />
    </g>
    <path
       d="M20 706c0-3.3 2.7-6 6-6h228c3.3 0 6 2.7 6 6v48c0 3.3-2.7 6-6 6H26c-3.3 0-6-2.7-6-6z"
       stroke="#000"
       stroke-opacity="0"
       stroke-width="3"
       fill="#fff"
       fill-opacity="0"
       id="path6026" />
    <g
       id="g6034">
      <use
         xlink:href="#q"
         transform="matrix(1,0,0,1,25,705) translate(3.425925925925924 30.27777777777778)"
         id="use6028" />
      <use
         xlink:href="#h"
         transform="matrix(1,0,0,1,25,705) translate(110.70987654320987 30.27777777777778)"
         id="use6030" />
      <use
         xlink:href="#i"
         transform="matrix(1,0,0,1,25,705) translate(160.03086419753086 30.27777777777778)"
         id="use6032" />
    </g>
    <path
       d="M320 694.33c0-3.3 2.7-6 6-6h168c3.3 0 6 2.7 6 6v51.34c0 3.3-2.7 6-6 6H326c-3.3 0-6-2.7-6-6z"
       stroke="#0c7cba"
       stroke-width="3"
       fill="#fff"
       id="path6036" />
    <g
       id="g6042">
      <use
         xlink:href="#T"
         transform="matrix(1,0,0,1,325,693.3333333333334) translate(34.44444444444444 17.77777777777778)"
         id="use6038" />
      <use
         xlink:href="#U"
         transform="matrix(1,0,0,1,325,693.3333333333334) translate(18.425925925925924 44.44444444444444)"
         id="use6040" />
    </g>
    <path
       d="M410 754.17V764c0 3.3 2.7 6 6 6h228c3.3 0 6 2.7 6 6v4"
       stroke="#5e5e5e"
       stroke-width="2"
       fill="none"
       id="path6044" />
    <path
       d="M411 754.2h-2v-1.03h2"
       fill="#5e5e5e"
       id="path6046" />
    <path
       d="M650 795.26L645.36 781h9.28z"
       stroke="#5e5e5e"
       stroke-width="2"
       fill="#5e5e5e"
       id="path6048" />
    <path
       d="M560 694.33c0-3.3 2.7-6 6-6h168c3.3 0 6 2.7 6 6v51.34c0 3.3-2.7 6-6 6H566c-3.3 0-6-2.7-6-6z"
       stroke="#0c7cba"
       stroke-width="3"
       fill="#fff"
       id="path6050" />
    <g
       id="g6060">
      <use
         xlink:href="#V"
         transform="matrix(1,0,0,1,565,693.3333333333334) translate(15.987654320987644 17.77777777777778)"
         id="use6052" />
      <use
         xlink:href="#W"
         transform="matrix(1,0,0,1,565,693.3333333333334) translate(71.41975308641975 17.77777777777778)"
         id="use6054" />
      <use
         xlink:href="#X"
         transform="matrix(1,0,0,1,565,693.3333333333334) translate(116.9753086419753 17.77777777777778)"
         id="use6056" />
      <use
         xlink:href="#Y"
         transform="matrix(1,0,0,1,565,693.3333333333334) translate(57.87037037037037 44.44444444444444)"
         id="use6058" />
    </g>
    <path
       d="M742.5 720H780"
       stroke="#5e5e5e"
       stroke-width="2"
       fill="none"
       id="path6062" />
    <path
       d="M742.53 721h-1.03v-2h1.03"
       fill="#5e5e5e"
       id="path6064" />
    <path
       d="M795.26 720L781 724.64v-9.28z"
       stroke="#5e5e5e"
       stroke-width="2"
       fill="#5e5e5e"
       id="path6066" />
    <path
       d="M502.5 720H540"
       stroke="#5e5e5e"
       stroke-width="2"
       fill="none"
       id="path6068" />
    <path
       d="M502.53 721h-1.03v-2h1.03"
       fill="#5e5e5e"
       id="path6070" />
    <path
       d="M555.26 720L541 724.64v-9.28z"
       stroke="#5e5e5e"
       stroke-width="2"
       fill="#5e5e5e"
       id="path6072" />
    <defs
       id="defs6793">
      <path
         fill="#333"
         d="M233-177c-1 41-23 64-60 70L243 0h-38l-65-103H63V0H30v-248c88 3 205-21 203 71zM63-129c60-2 137 13 137-47 0-61-80-42-137-45v92"
         id="Z" />
      <path
         fill="#333"
         d="M100-194c63 0 86 42 84 106H49c0 40 14 67 53 68 26 1 43-12 49-29l28 8c-11 28-37 45-77 45C44 4 14-33 15-96c1-61 26-98 85-98zm52 81c6-60-76-77-97-28-3 7-6 17-6 28h103"
         id="aa" />
      <path
         fill="#333"
         d="M24 0v-261h32V0H24"
         id="ab" />
      <path
         fill="#333"
         d="M108 0H70L1-190h34L89-25l56-165h34"
         id="ac" />
      <path
         fill="#333"
         d="M141-36C126-15 110 5 73 4 37 3 15-17 15-53c-1-64 63-63 125-63 3-35-9-54-41-54-24 1-41 7-42 31l-33-3c5-37 33-52 76-52 45 0 72 20 72 64v82c-1 20 7 32 28 27v20c-31 9-61-2-59-35zM48-53c0 20 12 33 32 33 41-3 63-29 60-74-43 2-92-5-92 41"
         id="ad" />
      <path
         fill="#333"
         d="M117-194c89-4 53 116 60 194h-32v-121c0-31-8-49-39-48C34-167 62-67 57 0H25l-1-190h30c1 10-1 24 2 32 11-22 29-35 61-36"
         id="ae" />
      <path
         fill="#333"
         d="M59-47c-2 24 18 29 38 22v24C64 9 27 4 27-40v-127H5v-23h24l9-43h21v43h35v23H59v120"
         id="af" />
      <g
         id="a">
        <use
           transform="matrix(0.06172839506172839,0,0,0.06172839506172839,0,0)"
           xlink:href="#Z"
           id="use6081" />
        <use
           transform="matrix(0.06172839506172839,0,0,0.06172839506172839,15.987654320987653,0)"
           xlink:href="#aa"
           id="use6083" />
        <use
           transform="matrix(0.06172839506172839,0,0,0.06172839506172839,28.333333333333332,0)"
           xlink:href="#ab"
           id="use6085" />
        <use
           transform="matrix(0.06172839506172839,0,0,0.06172839506172839,33.20987654320987,0)"
           xlink:href="#aa"
           id="use6087" />
        <use
           transform="matrix(0.06172839506172839,0,0,0.06172839506172839,45.55555555555555,0)"
           xlink:href="#ac"
           id="use6089" />
        <use
           transform="matrix(0.06172839506172839,0,0,0.06172839506172839,56.66666666666666,0)"
           xlink:href="#ad"
           id="use6091" />
        <use
           transform="matrix(0.06172839506172839,0,0,0.06172839506172839,69.01234567901234,0)"
           xlink:href="#ae"
           id="use6093" />
        <use
           transform="matrix(0.06172839506172839,0,0,0.06172839506172839,81.35802469135803,0)"
           xlink:href="#af"
           id="use6095" />
      </g>
      <path
         fill="#333"
         d="M100-194c62-1 85 37 85 99 1 63-27 99-86 99S16-35 15-95c0-66 28-99 85-99zM99-20c44 1 53-31 53-75 0-43-8-75-51-75s-53 32-53 75 10 74 51 75"
         id="ag" />
      <g
         id="b">
        <use
           transform="matrix(0.06172839506172839,0,0,0.06172839506172839,0,0)"
           xlink:href="#af"
           id="use6099" />
        <use
           transform="matrix(0.06172839506172839,0,0,0.06172839506172839,6.172839506172839,0)"
           xlink:href="#ag"
           id="use6101" />
      </g>
      <path
         fill="#333"
         d="M135-143c-3-34-86-38-87 0 15 53 115 12 119 90S17 21 10-45l28-5c4 36 97 45 98 0-10-56-113-15-118-90-4-57 82-63 122-42 12 7 21 19 24 35"
         id="ah" />
      <path
         fill="#333"
         d="M106-169C34-169 62-67 57 0H25v-261h32l-1 103c12-21 28-36 61-36 89 0 53 116 60 194h-32v-121c2-32-8-49-39-48"
         id="ai" />
      <path
         fill="#333"
         d="M114-163C36-179 61-72 57 0H25l-1-190h30c1 12-1 29 2 39 6-27 23-49 58-41v29"
         id="aj" />
      <path
         fill="#333"
         d="M16-82v-28h88v28H16"
         id="ak" />
      <path
         fill="#333"
         d="M210-169c-67 3-38 105-44 169h-31v-121c0-29-5-50-35-48C34-165 62-65 56 0H25l-1-190h30c1 10-1 24 2 32 10-44 99-50 107 0 11-21 27-35 58-36 85-2 47 119 55 194h-31v-121c0-29-5-49-35-48"
         id="al" />
      <g
         id="c">
        <use
           transform="matrix(0.06172839506172839,0,0,0.06172839506172839,0,0)"
           xlink:href="#ah"
           id="use6109" />
        <use
           transform="matrix(0.06172839506172839,0,0,0.06172839506172839,11.11111111111111,0)"
           xlink:href="#ai"
           id="use6111" />
        <use
           transform="matrix(0.06172839506172839,0,0,0.06172839506172839,23.45679012345679,0)"
           xlink:href="#ag"
           id="use6113" />
        <use
           transform="matrix(0.06172839506172839,0,0,0.06172839506172839,35.80246913580247,0)"
           xlink:href="#aj"
           id="use6115" />
        <use
           transform="matrix(0.06172839506172839,0,0,0.06172839506172839,43.148148148148145,0)"
           xlink:href="#af"
           id="use6117" />
        <use
           transform="matrix(0.06172839506172839,0,0,0.06172839506172839,49.32098765432099,0)"
           xlink:href="#ak"
           id="use6119" />
        <use
           transform="matrix(0.06172839506172839,0,0,0.06172839506172839,56.666666666666664,0)"
           xlink:href="#af"
           id="use6121" />
        <use
           transform="matrix(0.06172839506172839,0,0,0.06172839506172839,62.839506172839506,0)"
           xlink:href="#aa"
           id="use6123" />
        <use
           transform="matrix(0.06172839506172839,0,0,0.06172839506172839,75.18518518518519,0)"
           xlink:href="#aj"
           id="use6125" />
        <use
           transform="matrix(0.06172839506172839,0,0,0.06172839506172839,82.53086419753087,0)"
           xlink:href="#al"
           id="use6127" />
      </g>
      <path
         fill="#333"
         d="M179-190L93 31C79 59 56 82 12 73V49c39 6 53-20 64-50L1-190h34L92-34l54-156h33"
         id="am" />
      <g
         id="d">
        <use
           transform="matrix(0.06172839506172839,0,0,0.06172839506172839,0,0)"
           xlink:href="#al"
           id="use6131" />
        <use
           transform="matrix(0.06172839506172839,0,0,0.06172839506172839,18.456790123456788,0)"
           xlink:href="#aa"
           id="use6133" />
        <use
           transform="matrix(0.06172839506172839,0,0,0.06172839506172839,30.80246913580247,0)"
           xlink:href="#al"
           id="use6135" />
        <use
           transform="matrix(0.06172839506172839,0,0,0.06172839506172839,49.25925925925925,0)"
           xlink:href="#ag"
           id="use6137" />
        <use
           transform="matrix(0.06172839506172839,0,0,0.06172839506172839,61.60493827160493,0)"
           xlink:href="#aj"
           id="use6139" />
        <use
           transform="matrix(0.06172839506172839,0,0,0.06172839506172839,68.9506172839506,0)"
           xlink:href="#am"
           id="use6141" />
      </g>
      <path
         fill="#333"
         d="M177-190C167-65 218 103 67 71c-23-6-38-20-44-43l32-5c15 47 100 32 89-28v-30C133-14 115 1 83 1 29 1 15-40 15-95c0-56 16-97 71-98 29-1 48 16 59 35 1-10 0-23 2-32h30zM94-22c36 0 50-32 50-73 0-42-14-75-50-75-39 0-46 34-46 75s6 73 46 73"
         id="an" />
      <g
         id="e">
        <use
           transform="matrix(0.06172839506172839,0,0,0.06172839506172839,0,0)"
           xlink:href="#ab"
           id="use6145" />
        <use
           transform="matrix(0.06172839506172839,0,0,0.06172839506172839,4.876543209876543,0)"
           xlink:href="#ag"
           id="use6147" />
        <use
           transform="matrix(0.06172839506172839,0,0,0.06172839506172839,17.22222222222222,0)"
           xlink:href="#ae"
           id="use6149" />
        <use
           transform="matrix(0.06172839506172839,0,0,0.06172839506172839,29.5679012345679,0)"
           xlink:href="#an"
           id="use6151" />
        <use
           transform="matrix(0.06172839506172839,0,0,0.06172839506172839,41.913580246913575,0)"
           xlink:href="#ak"
           id="use6153" />
        <use
           transform="matrix(0.06172839506172839,0,0,0.06172839506172839,49.25925925925925,0)"
           xlink:href="#af"
           id="use6155" />
        <use
           transform="matrix(0.06172839506172839,0,0,0.06172839506172839,55.432098765432094,0)"
           xlink:href="#aa"
           id="use6157" />
        <use
           transform="matrix(0.06172839506172839,0,0,0.06172839506172839,67.77777777777777,0)"
           xlink:href="#aj"
           id="use6159" />
        <use
           transform="matrix(0.06172839506172839,0,0,0.06172839506172839,75.12345679012346,0)"
           xlink:href="#al"
           id="use6161" />
      </g>
      <path
         fill="#333"
         d="M185-189c-5-48-123-54-124 2 14 75 158 14 163 119 3 78-121 87-175 55-17-10-28-26-33-46l33-7c5 56 141 63 141-1 0-78-155-14-162-118-5-82 145-84 179-34 5 7 8 16 11 25"
         id="ao" />
      <g
         id="f">
        <use
           transform="matrix(0.06172839506172839,0,0,0.06172839506172839,0,0)"
           xlink:href="#ao"
           id="use6165" />
        <use
           transform="matrix(0.06172839506172839,0,0,0.06172839506172839,14.814814814814813,0)"
           xlink:href="#aa"
           id="use6167" />
        <use
           transform="matrix(0.06172839506172839,0,0,0.06172839506172839,27.160493827160494,0)"
           xlink:href="#af"
           id="use6169" />
      </g>
      <path
         fill="#333"
         d="M84 4C-5 8 30-112 23-190h32v120c0 31 7 50 39 49 72-2 45-101 50-169h31l1 190h-30c-1-10 1-25-2-33-11 22-28 36-60 37"
         id="ap" />
      <path
         fill="#333"
         d="M115-194c55 1 70 41 70 98S169 2 115 4C84 4 66-9 55-30l1 105H24l-1-265h31l2 30c10-21 28-34 59-34zm-8 174c40 0 45-34 45-75s-6-73-45-74c-42 0-51 32-51 76 0 43 10 73 51 73"
         id="aq" />
      <g
         id="g">
        <use
           transform="matrix(0.06172839506172839,0,0,0.06172839506172839,0,0)"
           xlink:href="#ap"
           id="use6174" />
        <use
           transform="matrix(0.06172839506172839,0,0,0.06172839506172839,12.345679012345679,0)"
           xlink:href="#aq"
           id="use6176" />
      </g>
      <g
         id="h">
        <use
           transform="matrix(0.06172839506172839,0,0,0.06172839506172839,0,0)"
           xlink:href="#am"
           id="use6179" />
        <use
           transform="matrix(0.06172839506172839,0,0,0.06172839506172839,11.11111111111111,0)"
           xlink:href="#ag"
           id="use6181" />
        <use
           transform="matrix(0.06172839506172839,0,0,0.06172839506172839,23.45679012345679,0)"
           xlink:href="#ap"
           id="use6183" />
        <use
           transform="matrix(0.06172839506172839,0,0,0.06172839506172839,35.80246913580247,0)"
           xlink:href="#aj"
           id="use6185" />
      </g>
      <path
         fill="#333"
         d="M24-231v-30h32v30H24zM-9 49c24 4 33-6 33-30v-209h32V24c2 40-23 58-65 49V49"
         id="ar" />
      <path
         fill="#333"
         d="M96-169c-40 0-48 33-48 73s9 75 48 75c24 0 41-14 43-38l32 2c-6 37-31 61-74 61-59 0-76-41-82-99-10-93 101-131 147-64 4 7 5 14 7 22l-32 3c-4-21-16-35-41-35"
         id="as" />
      <g
         id="i">
        <use
           transform="matrix(0.06172839506172839,0,0,0.06172839506172839,0,0)"
           xlink:href="#aq"
           id="use6190" />
        <use
           transform="matrix(0.06172839506172839,0,0,0.06172839506172839,12.345679012345679,0)"
           xlink:href="#aj"
           id="use6192" />
        <use
           transform="matrix(0.06172839506172839,0,0,0.06172839506172839,19.691358024691358,0)"
           xlink:href="#ag"
           id="use6194" />
        <use
           transform="matrix(0.06172839506172839,0,0,0.06172839506172839,32.03703703703704,0)"
           xlink:href="#ar"
           id="use6196" />
        <use
           transform="matrix(0.06172839506172839,0,0,0.06172839506172839,36.91358024691358,0)"
           xlink:href="#aa"
           id="use6198" />
        <use
           transform="matrix(0.06172839506172839,0,0,0.06172839506172839,49.25925925925926,0)"
           xlink:href="#as"
           id="use6200" />
        <use
           transform="matrix(0.06172839506172839,0,0,0.06172839506172839,60.37037037037037,0)"
           xlink:href="#af"
           id="use6202" />
      </g>
      <path
         fill="#333"
         d="M194 0L95-120 63-95V0H30v-248h33v124l119-124h40L117-140 236 0h-42"
         id="at" />
      <g
         id="j">
        <use
           transform="matrix(0.06172839506172839,0,0,0.06172839506172839,0,0)"
           xlink:href="#at"
           id="use6206" />
        <use
           transform="matrix(0.06172839506172839,0,0,0.06172839506172839,14.814814814814813,0)"
           xlink:href="#aa"
           id="use6208" />
        <use
           transform="matrix(0.06172839506172839,0,0,0.06172839506172839,27.160493827160494,0)"
           xlink:href="#aa"
           id="use6210" />
        <use
           transform="matrix(0.06172839506172839,0,0,0.06172839506172839,39.50617283950617,0)"
           xlink:href="#aq"
           id="use6212" />
      </g>
      <path
         fill="#333"
         d="M24-231v-30h32v30H24zM24 0v-190h32V0H24"
         id="au" />
      <g
         id="k">
        <use
           transform="matrix(0.06172839506172839,0,0,0.06172839506172839,0,0)"
           xlink:href="#af"
           id="use6216" />
        <use
           transform="matrix(0.06172839506172839,0,0,0.06172839506172839,6.172839506172839,0)"
           xlink:href="#ai"
           id="use6218" />
        <use
           transform="matrix(0.06172839506172839,0,0,0.06172839506172839,18.51851851851852,0)"
           xlink:href="#au"
           id="use6220" />
        <use
           transform="matrix(0.06172839506172839,0,0,0.06172839506172839,23.395061728395063,0)"
           xlink:href="#ae"
           id="use6222" />
        <use
           transform="matrix(0.06172839506172839,0,0,0.06172839506172839,35.74074074074074,0)"
           xlink:href="#an"
           id="use6224" />
        <use
           transform="matrix(0.06172839506172839,0,0,0.06172839506172839,48.08641975308642,0)"
           xlink:href="#ah"
           id="use6226" />
      </g>
      <path
         fill="#333"
         d="M85-194c31 0 48 13 60 33l-1-100h32l1 261h-30c-2-10 0-23-3-31C134-8 116 4 85 4 32 4 16-35 15-94c0-66 23-100 70-100zm9 24c-40 0-46 34-46 75 0 40 6 74 45 74 42 0 51-32 51-76 0-42-9-74-50-73"
         id="av" />
      <g
         id="l">
        <use
           transform="matrix(0.06172839506172839,0,0,0.06172839506172839,0,0)"
           xlink:href="#af"
           id="use6230" />
        <use
           transform="matrix(0.06172839506172839,0,0,0.06172839506172839,6.172839506172839,0)"
           xlink:href="#au"
           id="use6232" />
        <use
           transform="matrix(0.06172839506172839,0,0,0.06172839506172839,11.049382716049383,0)"
           xlink:href="#av"
           id="use6234" />
        <use
           transform="matrix(0.06172839506172839,0,0,0.06172839506172839,23.395061728395063,0)"
           xlink:href="#am"
           id="use6236" />
      </g>
      <path
         fill="#333"
         d="M266 0h-40l-56-210L115 0H75L2-248h35L96-30l15-64 43-154h32l59 218 59-218h35"
         id="aw" />
      <g
         id="m">
        <use
           transform="matrix(0.06172839506172839,0,0,0.06172839506172839,0,0)"
           xlink:href="#aw"
           id="use6240" />
        <use
           transform="matrix(0.06172839506172839,0,0,0.06172839506172839,20.493827160493826,0)"
           xlink:href="#aj"
           id="use6242" />
        <use
           transform="matrix(0.06172839506172839,0,0,0.06172839506172839,27.839506172839506,0)"
           xlink:href="#au"
           id="use6244" />
        <use
           transform="matrix(0.06172839506172839,0,0,0.06172839506172839,32.71604938271605,0)"
           xlink:href="#af"
           id="use6246" />
        <use
           transform="matrix(0.06172839506172839,0,0,0.06172839506172839,38.88888888888889,0)"
           xlink:href="#aa"
           id="use6248" />
      </g>
      <g
         id="n">
        <use
           transform="matrix(0.06172839506172839,0,0,0.06172839506172839,0,0)"
           xlink:href="#av"
           id="use6251" />
        <use
           transform="matrix(0.06172839506172839,0,0,0.06172839506172839,12.345679012345679,0)"
           xlink:href="#aa"
           id="use6253" />
        <use
           transform="matrix(0.06172839506172839,0,0,0.06172839506172839,24.691358024691358,0)"
           xlink:href="#as"
           id="use6255" />
        <use
           transform="matrix(0.06172839506172839,0,0,0.06172839506172839,35.80246913580247,0)"
           xlink:href="#ag"
           id="use6257" />
        <use
           transform="matrix(0.06172839506172839,0,0,0.06172839506172839,48.148148148148145,0)"
           xlink:href="#ap"
           id="use6259" />
        <use
           transform="matrix(0.06172839506172839,0,0,0.06172839506172839,60.49382716049382,0)"
           xlink:href="#aq"
           id="use6261" />
        <use
           transform="matrix(0.06172839506172839,0,0,0.06172839506172839,72.8395061728395,0)"
           xlink:href="#ab"
           id="use6263" />
        <use
           transform="matrix(0.06172839506172839,0,0,0.06172839506172839,77.71604938271605,0)"
           xlink:href="#aa"
           id="use6265" />
        <use
           transform="matrix(0.06172839506172839,0,0,0.06172839506172839,90.06172839506173,0)"
           xlink:href="#av"
           id="use6267" />
      </g>
      <g
         id="o">
        <use
           transform="matrix(0.06172839506172839,0,0,0.06172839506172839,0,0)"
           xlink:href="#as"
           id="use6270" />
        <use
           transform="matrix(0.06172839506172839,0,0,0.06172839506172839,11.11111111111111,0)"
           xlink:href="#ag"
           id="use6272" />
        <use
           transform="matrix(0.06172839506172839,0,0,0.06172839506172839,23.45679012345679,0)"
           xlink:href="#av"
           id="use6274" />
        <use
           transform="matrix(0.06172839506172839,0,0,0.06172839506172839,35.80246913580247,0)"
           xlink:href="#aa"
           id="use6276" />
      </g>
      <path
         fill="#333"
         d="M127-220V0H93v-220H8v-28h204v28h-85"
         id="ax" />
      <g
         id="p">
        <use
           transform="matrix(0.06172839506172839,0,0,0.06172839506172839,0,0)"
           xlink:href="#ax"
           id="use6280" />
        <use
           transform="matrix(0.06172839506172839,0,0,0.06172839506172839,11.049382716049381,0)"
           xlink:href="#aa"
           id="use6282" />
        <use
           transform="matrix(0.06172839506172839,0,0,0.06172839506172839,23.39506172839506,0)"
           xlink:href="#ah"
           id="use6284" />
        <use
           transform="matrix(0.06172839506172839,0,0,0.06172839506172839,34.50617283950617,0)"
           xlink:href="#af"
           id="use6286" />
      </g>
      <path
         fill="#333"
         d="M30-248c118-7 216 8 213 122C240-48 200 0 122 0H30v-248zM63-27c89 8 146-16 146-99s-60-101-146-95v194"
         id="ay" />
      <g
         id="q">
        <use
           transform="matrix(0.06172839506172839,0,0,0.06172839506172839,0,0)"
           xlink:href="#ay"
           id="use6290" />
        <use
           transform="matrix(0.06172839506172839,0,0,0.06172839506172839,15.987654320987653,0)"
           xlink:href="#ag"
           id="use6292" />
        <use
           transform="matrix(0.06172839506172839,0,0,0.06172839506172839,28.333333333333332,0)"
           xlink:href="#as"
           id="use6294" />
        <use
           transform="matrix(0.06172839506172839,0,0,0.06172839506172839,39.44444444444444,0)"
           xlink:href="#ap"
           id="use6296" />
        <use
           transform="matrix(0.06172839506172839,0,0,0.06172839506172839,51.79012345679012,0)"
           xlink:href="#al"
           id="use6298" />
        <use
           transform="matrix(0.06172839506172839,0,0,0.06172839506172839,70.24691358024691,0)"
           xlink:href="#aa"
           id="use6300" />
        <use
           transform="matrix(0.06172839506172839,0,0,0.06172839506172839,82.5925925925926,0)"
           xlink:href="#ae"
           id="use6302" />
        <use
           transform="matrix(0.06172839506172839,0,0,0.06172839506172839,94.93827160493828,0)"
           xlink:href="#af"
           id="use6304" />
      </g>
      <path
         fill="#333"
         d="M240 0l2-218c-23 76-54 145-80 218h-23L58-218 59 0H30v-248h44l77 211c21-75 51-140 76-211h43V0h-30"
         id="az" />
      <path
         fill="#333"
         d="M143 0L79-87 56-68V0H24v-261h32v163l83-92h37l-77 82L181 0h-38"
         id="aA" />
      <g
         id="r">
        <use
           transform="matrix(0.06172839506172839,0,0,0.06172839506172839,0,0)"
           xlink:href="#az"
           id="use6309" />
        <use
           transform="matrix(0.06172839506172839,0,0,0.06172839506172839,18.456790123456788,0)"
           xlink:href="#ad"
           id="use6311" />
        <use
           transform="matrix(0.06172839506172839,0,0,0.06172839506172839,30.80246913580247,0)"
           xlink:href="#aA"
           id="use6313" />
        <use
           transform="matrix(0.06172839506172839,0,0,0.06172839506172839,41.91358024691358,0)"
           xlink:href="#aa"
           id="use6315" />
      </g>
      <g
         id="s">
        <use
           transform="matrix(0.06172839506172839,0,0,0.06172839506172839,0,0)"
           xlink:href="#au"
           id="use6318" />
        <use
           transform="matrix(0.06172839506172839,0,0,0.06172839506172839,4.876543209876543,0)"
           xlink:href="#af"
           id="use6320" />
      </g>
      <g
         id="t">
        <use
           transform="matrix(0.06172839506172839,0,0,0.06172839506172839,0,0)"
           xlink:href="#ah"
           id="use6323" />
        <use
           transform="matrix(0.06172839506172839,0,0,0.06172839506172839,11.11111111111111,0)"
           xlink:href="#ag"
           id="use6325" />
        <use
           transform="matrix(0.06172839506172839,0,0,0.06172839506172839,23.45679012345679,0)"
           xlink:href="#as"
           id="use6327" />
        <use
           transform="matrix(0.06172839506172839,0,0,0.06172839506172839,34.5679012345679,0)"
           xlink:href="#au"
           id="use6329" />
        <use
           transform="matrix(0.06172839506172839,0,0,0.06172839506172839,39.44444444444444,0)"
           xlink:href="#ad"
           id="use6331" />
        <use
           transform="matrix(0.06172839506172839,0,0,0.06172839506172839,51.79012345679012,0)"
           xlink:href="#ab"
           id="use6333" />
      </g>
      <g
         id="u">
        <use
           transform="matrix(0.06172839506172839,0,0,0.06172839506172839,0,0)"
           xlink:href="#as"
           id="use6336" />
        <use
           transform="matrix(0.06172839506172839,0,0,0.06172839506172839,11.11111111111111,0)"
           xlink:href="#ag"
           id="use6338" />
        <use
           transform="matrix(0.06172839506172839,0,0,0.06172839506172839,23.45679012345679,0)"
           xlink:href="#ag"
           id="use6340" />
        <use
           transform="matrix(0.06172839506172839,0,0,0.06172839506172839,35.80246913580247,0)"
           xlink:href="#aA"
           id="use6342" />
        <use
           transform="matrix(0.06172839506172839,0,0,0.06172839506172839,46.91358024691358,0)"
           xlink:href="#au"
           id="use6344" />
        <use
           transform="matrix(0.06172839506172839,0,0,0.06172839506172839,51.79012345679013,0)"
           xlink:href="#aa"
           id="use6346" />
        <use
           transform="matrix(0.06172839506172839,0,0,0.06172839506172839,64.13580246913581,0)"
           xlink:href="#as"
           id="use6348" />
        <use
           transform="matrix(0.06172839506172839,0,0,0.06172839506172839,75.24691358024693,0)"
           xlink:href="#ap"
           id="use6350" />
        <use
           transform="matrix(0.06172839506172839,0,0,0.06172839506172839,87.59259259259261,0)"
           xlink:href="#af"
           id="use6352" />
        <use
           transform="matrix(0.06172839506172839,0,0,0.06172839506172839,93.76543209876544,0)"
           xlink:href="#af"
           id="use6354" />
        <use
           transform="matrix(0.06172839506172839,0,0,0.06172839506172839,99.93827160493828,0)"
           xlink:href="#aa"
           id="use6356" />
        <use
           transform="matrix(0.06172839506172839,0,0,0.06172839506172839,112.28395061728396,0)"
           xlink:href="#aj"
           id="use6358" />
      </g>
      <path
         fill="#333"
         d="M30 0v-248h187v28H63v79h144v27H63v87h162V0H30"
         id="aB" />
      <g
         id="v">
        <use
           transform="matrix(0.06172839506172839,0,0,0.06172839506172839,0,0)"
           xlink:href="#aB"
           id="use6362" />
        <use
           transform="matrix(0.06172839506172839,0,0,0.06172839506172839,14.814814814814813,0)"
           xlink:href="#ae"
           id="use6364" />
        <use
           transform="matrix(0.06172839506172839,0,0,0.06172839506172839,27.160493827160494,0)"
           xlink:href="#ac"
           id="use6366" />
        <use
           transform="matrix(0.06172839506172839,0,0,0.06172839506172839,38.27160493827161,0)"
           xlink:href="#au"
           id="use6368" />
        <use
           transform="matrix(0.06172839506172839,0,0,0.06172839506172839,43.14814814814815,0)"
           xlink:href="#aj"
           id="use6370" />
        <use
           transform="matrix(0.06172839506172839,0,0,0.06172839506172839,50.49382716049383,0)"
           xlink:href="#ag"
           id="use6372" />
        <use
           transform="matrix(0.06172839506172839,0,0,0.06172839506172839,62.839506172839506,0)"
           xlink:href="#ae"
           id="use6374" />
        <use
           transform="matrix(0.06172839506172839,0,0,0.06172839506172839,75.18518518518519,0)"
           xlink:href="#al"
           id="use6376" />
        <use
           transform="matrix(0.06172839506172839,0,0,0.06172839506172839,93.64197530864197,0)"
           xlink:href="#aa"
           id="use6378" />
        <use
           transform="matrix(0.06172839506172839,0,0,0.06172839506172839,105.98765432098766,0)"
           xlink:href="#ae"
           id="use6380" />
        <use
           transform="matrix(0.06172839506172839,0,0,0.06172839506172839,118.33333333333334,0)"
           xlink:href="#af"
           id="use6382" />
        <use
           transform="matrix(0.06172839506172839,0,0,0.06172839506172839,124.50617283950618,0)"
           xlink:href="#ah"
           id="use6384" />
      </g>
      <path
         fill="#333"
         d="M30-248c87 1 191-15 191 75 0 78-77 80-158 76V0H30v-248zm33 125c57 0 124 11 124-50 0-59-68-47-124-48v98"
         id="aC" />
      <g
         id="w">
        <use
           transform="matrix(0.06172839506172839,0,0,0.06172839506172839,0,0)"
           xlink:href="#aC"
           id="use6388" />
        <use
           transform="matrix(0.06172839506172839,0,0,0.06172839506172839,14.814814814814813,0)"
           xlink:href="#ad"
           id="use6390" />
        <use
           transform="matrix(0.06172839506172839,0,0,0.06172839506172839,27.160493827160494,0)"
           xlink:href="#as"
           id="use6392" />
        <use
           transform="matrix(0.06172839506172839,0,0,0.06172839506172839,38.27160493827161,0)"
           xlink:href="#aA"
           id="use6394" />
        <use
           transform="matrix(0.06172839506172839,0,0,0.06172839506172839,49.38271604938272,0)"
           xlink:href="#ad"
           id="use6396" />
        <use
           transform="matrix(0.06172839506172839,0,0,0.06172839506172839,61.7283950617284,0)"
           xlink:href="#an"
           id="use6398" />
        <use
           transform="matrix(0.06172839506172839,0,0,0.06172839506172839,74.07407407407408,0)"
           xlink:href="#au"
           id="use6400" />
        <use
           transform="matrix(0.06172839506172839,0,0,0.06172839506172839,78.95061728395062,0)"
           xlink:href="#ae"
           id="use6402" />
        <use
           transform="matrix(0.06172839506172839,0,0,0.06172839506172839,91.2962962962963,0)"
           xlink:href="#an"
           id="use6404" />
      </g>
      <path
         fill="#333"
         d="M212-179c-10-28-35-45-73-45-59 0-87 40-87 99 0 60 29 101 89 101 43 0 62-24 78-52l27 14C228-24 195 4 139 4 59 4 22-46 18-125c-6-104 99-153 187-111 19 9 31 26 39 46"
         id="aD" />
      <g
         id="x">
        <use
           transform="matrix(0.06172839506172839,0,0,0.06172839506172839,0,0)"
           xlink:href="#aD"
           id="use6408" />
        <use
           transform="matrix(0.06172839506172839,0,0,0.06172839506172839,15.987654320987653,0)"
           xlink:href="#ag"
           id="use6410" />
        <use
           transform="matrix(0.06172839506172839,0,0,0.06172839506172839,28.333333333333332,0)"
           xlink:href="#av"
           id="use6412" />
        <use
           transform="matrix(0.06172839506172839,0,0,0.06172839506172839,40.67901234567901,0)"
           xlink:href="#aa"
           id="use6414" />
      </g>
      <path
         fill="#333"
         d="M101-234c-31-9-42 10-38 44h38v23H63V0H32v-167H5v-23h27c-7-52 17-82 69-68v24"
         id="aE" />
      <g
         id="y">
        <use
           transform="matrix(0.06172839506172839,0,0,0.06172839506172839,0,0)"
           xlink:href="#aE"
           id="use6418" />
        <use
           transform="matrix(0.06172839506172839,0,0,0.06172839506172839,6.172839506172839,0)"
           xlink:href="#ag"
           id="use6420" />
        <use
           transform="matrix(0.06172839506172839,0,0,0.06172839506172839,18.51851851851852,0)"
           xlink:href="#aj"
           id="use6422" />
        <use
           transform="matrix(0.06172839506172839,0,0,0.06172839506172839,25.864197530864196,0)"
           xlink:href="#al"
           id="use6424" />
        <use
           transform="matrix(0.06172839506172839,0,0,0.06172839506172839,44.32098765432099,0)"
           xlink:href="#ad"
           id="use6426" />
        <use
           transform="matrix(0.06172839506172839,0,0,0.06172839506172839,56.666666666666664,0)"
           xlink:href="#af"
           id="use6428" />
        <use
           transform="matrix(0.06172839506172839,0,0,0.06172839506172839,62.839506172839506,0)"
           xlink:href="#af"
           id="use6430" />
        <use
           transform="matrix(0.06172839506172839,0,0,0.06172839506172839,69.01234567901234,0)"
           xlink:href="#aa"
           id="use6432" />
        <use
           transform="matrix(0.06172839506172839,0,0,0.06172839506172839,81.35802469135803,0)"
           xlink:href="#aj"
           id="use6434" />
        <use
           transform="matrix(0.06172839506172839,0,0,0.06172839506172839,88.70370370370371,0)"
           xlink:href="#ah"
           id="use6436" />
      </g>
      <g
         id="z">
        <use
           transform="matrix(0.06172839506172839,0,0,0.06172839506172839,0,0)"
           xlink:href="#ao"
           id="use6439" />
        <use
           transform="matrix(0.06172839506172839,0,0,0.06172839506172839,14.814814814814813,0)"
           xlink:href="#af"
           id="use6441" />
        <use
           transform="matrix(0.06172839506172839,0,0,0.06172839506172839,20.98765432098765,0)"
           xlink:href="#am"
           id="use6443" />
        <use
           transform="matrix(0.06172839506172839,0,0,0.06172839506172839,32.09876543209876,0)"
           xlink:href="#ab"
           id="use6445" />
        <use
           transform="matrix(0.06172839506172839,0,0,0.06172839506172839,36.9753086419753,0)"
           xlink:href="#aa"
           id="use6447" />
      </g>
      <g
         id="A">
        <use
           transform="matrix(0.06172839506172839,0,0,0.06172839506172839,0,0)"
           xlink:href="#an"
           id="use6450" />
        <use
           transform="matrix(0.06172839506172839,0,0,0.06172839506172839,12.345679012345679,0)"
           xlink:href="#ap"
           id="use6452" />
        <use
           transform="matrix(0.06172839506172839,0,0,0.06172839506172839,24.691358024691358,0)"
           xlink:href="#au"
           id="use6454" />
        <use
           transform="matrix(0.06172839506172839,0,0,0.06172839506172839,29.5679012345679,0)"
           xlink:href="#av"
           id="use6456" />
        <use
           transform="matrix(0.06172839506172839,0,0,0.06172839506172839,41.913580246913575,0)"
           xlink:href="#aa"
           id="use6458" />
        <use
           transform="matrix(0.06172839506172839,0,0,0.06172839506172839,54.25925925925925,0)"
           xlink:href="#ah"
           id="use6460" />
      </g>
      <path
         fill="#333"
         d="M30 0v-248h33v221h125V0H30"
         id="aF" />
      <g
         id="B">
        <use
           transform="matrix(0.06172839506172839,0,0,0.06172839506172839,0,0)"
           xlink:href="#aF"
           id="use6464" />
        <use
           transform="matrix(0.06172839506172839,0,0,0.06172839506172839,12.345679012345679,0)"
           xlink:href="#au"
           id="use6466" />
        <use
           transform="matrix(0.06172839506172839,0,0,0.06172839506172839,17.22222222222222,0)"
           xlink:href="#ae"
           id="use6468" />
        <use
           transform="matrix(0.06172839506172839,0,0,0.06172839506172839,29.5679012345679,0)"
           xlink:href="#af"
           id="use6470" />
        <use
           transform="matrix(0.06172839506172839,0,0,0.06172839506172839,35.74074074074074,0)"
           xlink:href="#aa"
           id="use6472" />
        <use
           transform="matrix(0.06172839506172839,0,0,0.06172839506172839,48.08641975308642,0)"
           xlink:href="#aj"
           id="use6474" />
        <use
           transform="matrix(0.06172839506172839,0,0,0.06172839506172839,55.432098765432094,0)"
           xlink:href="#ah"
           id="use6476" />
      </g>
      <g
         id="C">
        <use
           transform="matrix(0.06172839506172839,0,0,0.06172839506172839,0,0)"
           xlink:href="#aC"
           id="use6479" />
        <use
           transform="matrix(0.06172839506172839,0,0,0.06172839506172839,14.814814814814813,0)"
           xlink:href="#ap"
           id="use6481" />
        <use
           transform="matrix(0.06172839506172839,0,0,0.06172839506172839,27.160493827160494,0)"
           xlink:href="#aj"
           id="use6483" />
        <use
           transform="matrix(0.06172839506172839,0,0,0.06172839506172839,34.50617283950617,0)"
           xlink:href="#aa"
           id="use6485" />
      </g>
      <g
         id="D">
        <use
           transform="matrix(0.06172839506172839,0,0,0.06172839506172839,0,0)"
           xlink:href="#aE"
           id="use6488" />
        <use
           transform="matrix(0.06172839506172839,0,0,0.06172839506172839,6.172839506172839,0)"
           xlink:href="#ap"
           id="use6490" />
        <use
           transform="matrix(0.06172839506172839,0,0,0.06172839506172839,18.51851851851852,0)"
           xlink:href="#ae"
           id="use6492" />
        <use
           transform="matrix(0.06172839506172839,0,0,0.06172839506172839,30.864197530864196,0)"
           xlink:href="#as"
           id="use6494" />
        <use
           transform="matrix(0.06172839506172839,0,0,0.06172839506172839,41.9753086419753,0)"
           xlink:href="#af"
           id="use6496" />
        <use
           transform="matrix(0.06172839506172839,0,0,0.06172839506172839,48.148148148148145,0)"
           xlink:href="#au"
           id="use6498" />
        <use
           transform="matrix(0.06172839506172839,0,0,0.06172839506172839,53.02469135802469,0)"
           xlink:href="#ag"
           id="use6500" />
        <use
           transform="matrix(0.06172839506172839,0,0,0.06172839506172839,65.37037037037037,0)"
           xlink:href="#ae"
           id="use6502" />
        <use
           transform="matrix(0.06172839506172839,0,0,0.06172839506172839,77.71604938271605,0)"
           xlink:href="#ah"
           id="use6504" />
      </g>
      <g
         id="E">
        <use
           transform="matrix(0.06172839506172839,0,0,0.06172839506172839,0,0)"
           xlink:href="#ao"
           id="use6507" />
        <use
           transform="matrix(0.06172839506172839,0,0,0.06172839506172839,14.814814814814813,0)"
           xlink:href="#au"
           id="use6509" />
        <use
           transform="matrix(0.06172839506172839,0,0,0.06172839506172839,19.691358024691354,0)"
           xlink:href="#av"
           id="use6511" />
        <use
           transform="matrix(0.06172839506172839,0,0,0.06172839506172839,32.03703703703703,0)"
           xlink:href="#aa"
           id="use6513" />
      </g>
      <g
         id="F">
        <use
           transform="matrix(0.06172839506172839,0,0,0.06172839506172839,0,0)"
           xlink:href="#aa"
           id="use6516" />
        <use
           transform="matrix(0.06172839506172839,0,0,0.06172839506172839,12.345679012345679,0)"
           xlink:href="#aE"
           id="use6518" />
        <use
           transform="matrix(0.06172839506172839,0,0,0.06172839506172839,18.08641975308642,0)"
           xlink:href="#aE"
           id="use6520" />
        <use
           transform="matrix(0.06172839506172839,0,0,0.06172839506172839,24.25925925925926,0)"
           xlink:href="#aa"
           id="use6522" />
        <use
           transform="matrix(0.06172839506172839,0,0,0.06172839506172839,36.60493827160494,0)"
           xlink:href="#as"
           id="use6524" />
        <use
           transform="matrix(0.06172839506172839,0,0,0.06172839506172839,47.71604938271605,0)"
           xlink:href="#af"
           id="use6526" />
        <use
           transform="matrix(0.06172839506172839,0,0,0.06172839506172839,53.88888888888889,0)"
           xlink:href="#ah"
           id="use6528" />
      </g>
      <path
         fill="#333"
         d="M232-93c-1 65-40 97-104 97C67 4 28-28 28-90v-158h33c8 89-33 224 67 224 102 0 64-133 71-224h33v155"
         id="aG" />
      <g
         id="G">
        <use
           transform="matrix(0.06172839506172839,0,0,0.06172839506172839,0,0)"
           xlink:href="#aG"
           id="use6532" />
        <use
           transform="matrix(0.06172839506172839,0,0,0.06172839506172839,15.987654320987653,0)"
           xlink:href="#ae"
           id="use6534" />
        <use
           transform="matrix(0.06172839506172839,0,0,0.06172839506172839,28.333333333333332,0)"
           xlink:href="#au"
           id="use6536" />
        <use
           transform="matrix(0.06172839506172839,0,0,0.06172839506172839,33.20987654320987,0)"
           xlink:href="#af"
           id="use6538" />
      </g>
      <g
         id="H">
        <use
           transform="matrix(0.06172839506172839,0,0,0.06172839506172839,0,0)"
           xlink:href="#af"
           id="use6541" />
        <use
           transform="matrix(0.06172839506172839,0,0,0.06172839506172839,6.172839506172839,0)"
           xlink:href="#aa"
           id="use6543" />
        <use
           transform="matrix(0.06172839506172839,0,0,0.06172839506172839,18.51851851851852,0)"
           xlink:href="#ah"
           id="use6545" />
        <use
           transform="matrix(0.06172839506172839,0,0,0.06172839506172839,29.62962962962963,0)"
           xlink:href="#af"
           id="use6547" />
        <use
           transform="matrix(0.06172839506172839,0,0,0.06172839506172839,35.80246913580247,0)"
           xlink:href="#ah"
           id="use6549" />
      </g>
      <g
         id="I">
        <use
           transform="matrix(0.06172839506172839,0,0,0.06172839506172839,0,0)"
           xlink:href="#ad"
           id="use6552" />
        <use
           transform="matrix(0.06172839506172839,0,0,0.06172839506172839,12.345679012345679,0)"
           xlink:href="#ah"
           id="use6554" />
        <use
           transform="matrix(0.06172839506172839,0,0,0.06172839506172839,23.45679012345679,0)"
           xlink:href="#ah"
           id="use6556" />
        <use
           transform="matrix(0.06172839506172839,0,0,0.06172839506172839,34.5679012345679,0)"
           xlink:href="#aa"
           id="use6558" />
        <use
           transform="matrix(0.06172839506172839,0,0,0.06172839506172839,46.913580246913575,0)"
           xlink:href="#aj"
           id="use6560" />
        <use
           transform="matrix(0.06172839506172839,0,0,0.06172839506172839,54.25925925925925,0)"
           xlink:href="#af"
           id="use6562" />
      </g>
      <g
         id="J">
        <use
           transform="matrix(0.06172839506172839,0,0,0.06172839506172839,0,0)"
           xlink:href="#Z"
           id="use6565" />
        <use
           transform="matrix(0.06172839506172839,0,0,0.06172839506172839,15.987654320987653,0)"
           xlink:href="#aa"
           id="use6567" />
        <use
           transform="matrix(0.06172839506172839,0,0,0.06172839506172839,28.333333333333332,0)"
           xlink:href="#aE"
           id="use6569" />
        <use
           transform="matrix(0.06172839506172839,0,0,0.06172839506172839,34.50617283950617,0)"
           xlink:href="#ad"
           id="use6571" />
        <use
           transform="matrix(0.06172839506172839,0,0,0.06172839506172839,46.85185185185185,0)"
           xlink:href="#as"
           id="use6573" />
        <use
           transform="matrix(0.06172839506172839,0,0,0.06172839506172839,57.96296296296296,0)"
           xlink:href="#af"
           id="use6575" />
        <use
           transform="matrix(0.06172839506172839,0,0,0.06172839506172839,64.1358024691358,0)"
           xlink:href="#ag"
           id="use6577" />
        <use
           transform="matrix(0.06172839506172839,0,0,0.06172839506172839,76.48148148148148,0)"
           xlink:href="#aj"
           id="use6579" />
        <use
           transform="matrix(0.06172839506172839,0,0,0.06172839506172839,83.82716049382717,0)"
           xlink:href="#au"
           id="use6581" />
        <use
           transform="matrix(0.06172839506172839,0,0,0.06172839506172839,88.70370370370371,0)"
           xlink:href="#ae"
           id="use6583" />
        <use
           transform="matrix(0.06172839506172839,0,0,0.06172839506172839,101.0493827160494,0)"
           xlink:href="#an"
           id="use6585" />
      </g>
      <g
         id="K">
        <use
           transform="matrix(0.06172839506172839,0,0,0.06172839506172839,0,0)"
           xlink:href="#Z"
           id="use6588" />
        <use
           transform="matrix(0.06172839506172839,0,0,0.06172839506172839,15.987654320987653,0)"
           xlink:href="#aa"
           id="use6590" />
        <use
           transform="matrix(0.06172839506172839,0,0,0.06172839506172839,28.333333333333332,0)"
           xlink:href="#ad"
           id="use6592" />
        <use
           transform="matrix(0.06172839506172839,0,0,0.06172839506172839,40.67901234567901,0)"
           xlink:href="#av"
           id="use6594" />
        <use
           transform="matrix(0.06172839506172839,0,0,0.06172839506172839,53.02469135802469,0)"
           xlink:href="#af"
           id="use6596" />
        <use
           transform="matrix(0.06172839506172839,0,0,0.06172839506172839,59.19753086419753,0)"
           xlink:href="#ai"
           id="use6598" />
        <use
           transform="matrix(0.06172839506172839,0,0,0.06172839506172839,71.54320987654322,0)"
           xlink:href="#aa"
           id="use6600" />
        <use
           transform="matrix(0.06172839506172839,0,0,0.06172839506172839,83.8888888888889,0)"
           xlink:href="#av"
           id="use6602" />
        <use
           transform="matrix(0.06172839506172839,0,0,0.06172839506172839,96.23456790123458,0)"
           xlink:href="#ag"
           id="use6604" />
        <use
           transform="matrix(0.06172839506172839,0,0,0.06172839506172839,108.58024691358027,0)"
           xlink:href="#as"
           id="use6606" />
        <use
           transform="matrix(0.06172839506172839,0,0,0.06172839506172839,119.69135802469138,0)"
           xlink:href="#ah"
           id="use6608" />
      </g>
      <path
         fill="#333"
         d="M141 0L90-78 38 0H4l68-98-65-92h35l48 74 47-74h35l-64 92 68 98h-35"
         id="aH" />
      <g
         id="L">
        <use
           transform="matrix(0.06172839506172839,0,0,0.06172839506172839,0,0)"
           xlink:href="#ao"
           id="use6612" />
        <use
           transform="matrix(0.06172839506172839,0,0,0.06172839506172839,14.814814814814813,0)"
           xlink:href="#aq"
           id="use6614" />
        <use
           transform="matrix(0.06172839506172839,0,0,0.06172839506172839,27.160493827160494,0)"
           xlink:href="#ai"
           id="use6616" />
        <use
           transform="matrix(0.06172839506172839,0,0,0.06172839506172839,39.50617283950617,0)"
           xlink:href="#au"
           id="use6618" />
        <use
           transform="matrix(0.06172839506172839,0,0,0.06172839506172839,44.382716049382715,0)"
           xlink:href="#ae"
           id="use6620" />
        <use
           transform="matrix(0.06172839506172839,0,0,0.06172839506172839,56.72839506172839,0)"
           xlink:href="#aH"
           id="use6622" />
      </g>
      <g
         id="M">
        <use
           transform="matrix(0.06172839506172839,0,0,0.06172839506172839,0,0)"
           xlink:href="#aC"
           id="use6625" />
        <use
           transform="matrix(0.06172839506172839,0,0,0.06172839506172839,14.814814814814813,0)"
           xlink:href="#ad"
           id="use6627" />
        <use
           transform="matrix(0.06172839506172839,0,0,0.06172839506172839,27.160493827160494,0)"
           xlink:href="#au"
           id="use6629" />
        <use
           transform="matrix(0.06172839506172839,0,0,0.06172839506172839,32.03703703703704,0)"
           xlink:href="#aj"
           id="use6631" />
      </g>
      <g
         id="N">
        <use
           transform="matrix(0.06172839506172839,0,0,0.06172839506172839,0,0)"
           xlink:href="#aq"
           id="use6634" />
        <use
           transform="matrix(0.06172839506172839,0,0,0.06172839506172839,12.345679012345679,0)"
           xlink:href="#aj"
           id="use6636" />
        <use
           transform="matrix(0.06172839506172839,0,0,0.06172839506172839,19.691358024691358,0)"
           xlink:href="#ag"
           id="use6638" />
        <use
           transform="matrix(0.06172839506172839,0,0,0.06172839506172839,32.03703703703704,0)"
           xlink:href="#an"
           id="use6640" />
        <use
           transform="matrix(0.06172839506172839,0,0,0.06172839506172839,44.382716049382715,0)"
           xlink:href="#aj"
           id="use6642" />
        <use
           transform="matrix(0.06172839506172839,0,0,0.06172839506172839,51.72839506172839,0)"
           xlink:href="#ad"
           id="use6644" />
        <use
           transform="matrix(0.06172839506172839,0,0,0.06172839506172839,64.07407407407408,0)"
           xlink:href="#al"
           id="use6646" />
      </g>
      <path
         fill="#333"
         d="M140-251c81 0 123 46 123 126C263-46 219 4 140 4 59 4 17-45 17-125s42-126 123-126zm0 227c63 0 89-41 89-101s-29-99-89-99c-61 0-89 39-89 99S79-25 140-24"
         id="aI" />
      <g
         id="O">
        <use
           transform="matrix(0.06172839506172839,0,0,0.06172839506172839,0,0)"
           xlink:href="#aI"
           id="use6650" />
        <use
           transform="matrix(0.06172839506172839,0,0,0.06172839506172839,17.28395061728395,0)"
           xlink:href="#aq"
           id="use6652" />
        <use
           transform="matrix(0.06172839506172839,0,0,0.06172839506172839,29.629629629629626,0)"
           xlink:href="#aa"
           id="use6654" />
        <use
           transform="matrix(0.06172839506172839,0,0,0.06172839506172839,41.9753086419753,0)"
           xlink:href="#ae"
           id="use6656" />
      </g>
      <g
         id="P">
        <use
           transform="matrix(0.06172839506172839,0,0,0.06172839506172839,0,0)"
           xlink:href="#ah"
           id="use6659" />
        <use
           transform="matrix(0.06172839506172839,0,0,0.06172839506172839,11.11111111111111,0)"
           xlink:href="#ag"
           id="use6661" />
        <use
           transform="matrix(0.06172839506172839,0,0,0.06172839506172839,23.45679012345679,0)"
           xlink:href="#ap"
           id="use6663" />
        <use
           transform="matrix(0.06172839506172839,0,0,0.06172839506172839,35.80246913580247,0)"
           xlink:href="#aj"
           id="use6665" />
        <use
           transform="matrix(0.06172839506172839,0,0,0.06172839506172839,43.148148148148145,0)"
           xlink:href="#as"
           id="use6667" />
        <use
           transform="matrix(0.06172839506172839,0,0,0.06172839506172839,54.25925925925925,0)"
           xlink:href="#aa"
           id="use6669" />
      </g>
      <g
         id="Q">
        <use
           transform="matrix(0.06172839506172839,0,0,0.06172839506172839,0,0)"
           xlink:href="#at"
           id="use6672" />
        <use
           transform="matrix(0.06172839506172839,0,0,0.06172839506172839,14.814814814814813,0)"
           xlink:href="#aa"
           id="use6674" />
        <use
           transform="matrix(0.06172839506172839,0,0,0.06172839506172839,27.160493827160494,0)"
           xlink:href="#am"
           id="use6676" />
      </g>
      <path
         fill="#333"
         d="M205 0l-28-72H64L36 0H1l101-248h38L239 0h-34zm-38-99l-47-123c-12 45-31 82-46 123h93"
         id="aJ" />
      <path
         fill="#333"
         d="M33 0v-38h34V0H33"
         id="aK" />
      <g
         id="R">
        <use
           transform="matrix(0.06172839506172839,0,0,0.06172839506172839,0,0)"
           xlink:href="#Z"
           id="use6681" />
        <use
           transform="matrix(0.06172839506172839,0,0,0.06172839506172839,15.987654320987653,0)"
           xlink:href="#aB"
           id="use6683" />
        <use
           transform="matrix(0.06172839506172839,0,0,0.06172839506172839,30.80246913580247,0)"
           xlink:href="#aJ"
           id="use6685" />
        <use
           transform="matrix(0.06172839506172839,0,0,0.06172839506172839,45.61728395061728,0)"
           xlink:href="#ay"
           id="use6687" />
        <use
           transform="matrix(0.06172839506172839,0,0,0.06172839506172839,61.60493827160493,0)"
           xlink:href="#az"
           id="use6689" />
        <use
           transform="matrix(0.06172839506172839,0,0,0.06172839506172839,80.06172839506172,0)"
           xlink:href="#aB"
           id="use6691" />
        <use
           transform="matrix(0.06172839506172839,0,0,0.06172839506172839,94.87654320987653,0)"
           xlink:href="#aK"
           id="use6693" />
        <use
           transform="matrix(0.06172839506172839,0,0,0.06172839506172839,101.04938271604937,0)"
           xlink:href="#al"
           id="use6695" />
        <use
           transform="matrix(0.06172839506172839,0,0,0.06172839506172839,119.50617283950615,0)"
           xlink:href="#av"
           id="use6697" />
      </g>
      <g
         id="S">
        <use
           transform="matrix(0.06172839506172839,0,0,0.06172839506172839,0,0)"
           xlink:href="#ah"
           id="use6700" />
        <use
           transform="matrix(0.06172839506172839,0,0,0.06172839506172839,11.11111111111111,0)"
           xlink:href="#ap"
           id="use6702" />
        <use
           transform="matrix(0.06172839506172839,0,0,0.06172839506172839,23.45679012345679,0)"
           xlink:href="#au"
           id="use6704" />
        <use
           transform="matrix(0.06172839506172839,0,0,0.06172839506172839,28.333333333333336,0)"
           xlink:href="#af"
           id="use6706" />
        <use
           transform="matrix(0.06172839506172839,0,0,0.06172839506172839,34.50617283950618,0)"
           xlink:href="#aa"
           id="use6708" />
        <use
           transform="matrix(0.06172839506172839,0,0,0.06172839506172839,46.851851851851855,0)"
           xlink:href="#ah"
           id="use6710" />
      </g>
      <g
         id="T">
        <use
           transform="matrix(0.06172839506172839,0,0,0.06172839506172839,0,0)"
           xlink:href="#ay"
           id="use6713" />
        <use
           transform="matrix(0.06172839506172839,0,0,0.06172839506172839,15.987654320987653,0)"
           xlink:href="#ag"
           id="use6715" />
        <use
           transform="matrix(0.06172839506172839,0,0,0.06172839506172839,28.333333333333332,0)"
           xlink:href="#as"
           id="use6717" />
        <use
           transform="matrix(0.06172839506172839,0,0,0.06172839506172839,39.44444444444444,0)"
           xlink:href="#ap"
           id="use6719" />
        <use
           transform="matrix(0.06172839506172839,0,0,0.06172839506172839,51.79012345679012,0)"
           xlink:href="#al"
           id="use6721" />
        <use
           transform="matrix(0.06172839506172839,0,0,0.06172839506172839,70.24691358024691,0)"
           xlink:href="#aa"
           id="use6723" />
        <use
           transform="matrix(0.06172839506172839,0,0,0.06172839506172839,82.5925925925926,0)"
           xlink:href="#ae"
           id="use6725" />
        <use
           transform="matrix(0.06172839506172839,0,0,0.06172839506172839,94.93827160493828,0)"
           xlink:href="#af"
           id="use6727" />
      </g>
      <g
         id="U">
        <use
           transform="matrix(0.06172839506172839,0,0,0.06172839506172839,0,0)"
           xlink:href="#aa"
           id="use6730" />
        <use
           transform="matrix(0.06172839506172839,0,0,0.06172839506172839,12.345679012345679,0)"
           xlink:href="#ae"
           id="use6732" />
        <use
           transform="matrix(0.06172839506172839,0,0,0.06172839506172839,24.691358024691358,0)"
           xlink:href="#ac"
           id="use6734" />
        <use
           transform="matrix(0.06172839506172839,0,0,0.06172839506172839,35.80246913580247,0)"
           xlink:href="#au"
           id="use6736" />
        <use
           transform="matrix(0.06172839506172839,0,0,0.06172839506172839,40.67901234567901,0)"
           xlink:href="#aj"
           id="use6738" />
        <use
           transform="matrix(0.06172839506172839,0,0,0.06172839506172839,48.02469135802469,0)"
           xlink:href="#ag"
           id="use6740" />
        <use
           transform="matrix(0.06172839506172839,0,0,0.06172839506172839,60.37037037037037,0)"
           xlink:href="#ae"
           id="use6742" />
        <use
           transform="matrix(0.06172839506172839,0,0,0.06172839506172839,72.71604938271605,0)"
           xlink:href="#al"
           id="use6744" />
        <use
           transform="matrix(0.06172839506172839,0,0,0.06172839506172839,91.17283950617283,0)"
           xlink:href="#aa"
           id="use6746" />
        <use
           transform="matrix(0.06172839506172839,0,0,0.06172839506172839,103.51851851851852,0)"
           xlink:href="#ae"
           id="use6748" />
        <use
           transform="matrix(0.06172839506172839,0,0,0.06172839506172839,115.8641975308642,0)"
           xlink:href="#af"
           id="use6750" />
        <use
           transform="matrix(0.06172839506172839,0,0,0.06172839506172839,122.03703703703704,0)"
           xlink:href="#ah"
           id="use6752" />
      </g>
      <g
         id="V">
        <use
           transform="matrix(0.06172839506172839,0,0,0.06172839506172839,0,0)"
           xlink:href="#ao"
           id="use6755" />
        <use
           transform="matrix(0.06172839506172839,0,0,0.06172839506172839,14.814814814814813,0)"
           xlink:href="#ai"
           id="use6757" />
        <use
           transform="matrix(0.06172839506172839,0,0,0.06172839506172839,27.160493827160494,0)"
           xlink:href="#aa"
           id="use6759" />
        <use
           transform="matrix(0.06172839506172839,0,0,0.06172839506172839,39.50617283950617,0)"
           xlink:href="#ab"
           id="use6761" />
        <use
           transform="matrix(0.06172839506172839,0,0,0.06172839506172839,44.382716049382715,0)"
           xlink:href="#ab"
           id="use6763" />
      </g>
      <g
         id="W">
        <use
           transform="matrix(0.06172839506172839,0,0,0.06172839506172839,0,0)"
           xlink:href="#aE"
           id="use6766" />
        <use
           transform="matrix(0.06172839506172839,0,0,0.06172839506172839,6.172839506172839,0)"
           xlink:href="#au"
           id="use6768" />
        <use
           transform="matrix(0.06172839506172839,0,0,0.06172839506172839,11.049382716049383,0)"
           xlink:href="#ab"
           id="use6770" />
        <use
           transform="matrix(0.06172839506172839,0,0,0.06172839506172839,15.925925925925926,0)"
           xlink:href="#aa"
           id="use6772" />
        <use
           transform="matrix(0.06172839506172839,0,0,0.06172839506172839,28.271604938271604,0)"
           xlink:href="#ah"
           id="use6774" />
      </g>
      <g
         id="X">
        <use
           transform="matrix(0.06172839506172839,0,0,0.06172839506172839,0,0)"
           xlink:href="#ad"
           id="use6777" />
        <use
           transform="matrix(0.06172839506172839,0,0,0.06172839506172839,12.345679012345679,0)"
           xlink:href="#ae"
           id="use6779" />
        <use
           transform="matrix(0.06172839506172839,0,0,0.06172839506172839,24.691358024691358,0)"
           xlink:href="#av"
           id="use6781" />
      </g>
      <g
         id="Y">
        <use
           transform="matrix(0.06172839506172839,0,0,0.06172839506172839,0,0)"
           xlink:href="#al"
           id="use6784" />
        <use
           transform="matrix(0.06172839506172839,0,0,0.06172839506172839,18.456790123456788,0)"
           xlink:href="#ad"
           id="use6786" />
        <use
           transform="matrix(0.06172839506172839,0,0,0.06172839506172839,30.80246913580247,0)"
           xlink:href="#aA"
           id="use6788" />
        <use
           transform="matrix(0.06172839506172839,0,0,0.06172839506172839,41.91358024691358,0)"
           xlink:href="#aa"
           id="use6790" />
      </g>
    </defs>
  </g>
</svg>
